REM DIRINDEX 1\2,1\3\7,1\3\8,1\4\9,1\4\10,1\4\11,1\5\12,1\5\13,1\5\14,1\6\15,1\6\16,1\6\17
REM DIRNAME "folder01","folder02","folder03","folder04","folder05","folder06","folder07","folder08","folder09","folder10","folder11","folder12","folder13","folder14","folder15","folder16","folder17"
TITLE ""
FILE "2Q_t_0501-0517.mp3" MP3
  TRACK 01 AUDIO
    TITLE "0:"
    INDEX 01 00:00:00
  TRACK 02 AUDIO
    TITLE "2:cjc174_2756"
    INDEX 01 00:00:10
  TRACK 03 AUDIO
    TITLE "0:"
    INDEX 01 00:03:38
  TRACK 04 AUDIO
    TITLE "2:cjc174_2757"
    INDEX 01 00:04:45
  TRACK 05 AUDIO
    TITLE "0:"
    INDEX 01 00:06:11
  TRACK 06 AUDIO
    TITLE "2:cjc174_2758"
    INDEX 01 00:06:56
  TRACK 07 AUDIO
    TITLE "0:"
    INDEX 01 00:07:59
  TRACK 08 AUDIO
    TITLE "7:cjc174_2759"
    INDEX 01 00:08:29
  TRACK 09 AUDIO
    TITLE "0:"
    INDEX 01 00:09:37
  TRACK 10 AUDIO
    TITLE "8:cjc174_2760"
    INDEX 01 00:10:07
  TRACK 11 AUDIO
    TITLE "0:"
    INDEX 01 00:11:18
  TRACK 12 AUDIO
    TITLE "7:cjc174_2761"
    INDEX 01 00:11:61
  TRACK 13 AUDIO
    TITLE "0:"
    INDEX 01 00:13:07
  TRACK 14 AUDIO
    TITLE "8:cjc174_2762"
    INDEX 01 00:13:52
  TRACK 15 AUDIO
    TITLE "0:"
    INDEX 01 00:19:08
  TRACK 16 AUDIO
    TITLE "7:cjc174_2763"
    INDEX 01 00:19:55
  TRACK 17 AUDIO
    TITLE "0:"
    INDEX 01 00:20:74
  TRACK 18 AUDIO
    TITLE "8:cjc174_2764"
    INDEX 01 00:21:46
  TRACK 19 AUDIO
    TITLE "0:"
    INDEX 01 00:24:66
  TRACK 20 AUDIO
    TITLE "7:cjc174_2765"
    INDEX 01 00:25:36
  TRACK 21 AUDIO
    TITLE "0:"
    INDEX 01 00:26:43
  TRACK 22 AUDIO
    TITLE "8:cjc174_2766"
    INDEX 01 00:27:13
  TRACK 23 AUDIO
    TITLE "0:"
    INDEX 01 00:30:54
  TRACK 24 AUDIO
    TITLE "7:cjc174_2767"
    INDEX 01 00:31:23
  TRACK 25 AUDIO
    TITLE "0:"
    INDEX 01 00:32:26
  TRACK 26 AUDIO
    TITLE "8:cjc174_2768"
    INDEX 01 00:32:71
  TRACK 27 AUDIO
    TITLE "0:"
    INDEX 01 00:35:11
  TRACK 28 AUDIO
    TITLE "7:cjc174_2769"
    INDEX 01 00:35:56
  TRACK 29 AUDIO
    TITLE "0:"
    INDEX 01 00:36:63
  TRACK 30 AUDIO
    TITLE "8:cjc174_2770"
    INDEX 01 00:37:35
  TRACK 31 AUDIO
    TITLE "0:"
    INDEX 01 00:39:75
  TRACK 32 AUDIO
    TITLE "7:cjc174_2771"
    INDEX 01 00:40:43
  TRACK 33 AUDIO
    TITLE "0:"
    INDEX 01 00:41:66
  TRACK 34 AUDIO
    TITLE "8:cjc174_2772"
    INDEX 01 00:42:38
  TRACK 35 AUDIO
    TITLE "0:"
    INDEX 01 00:45:33
  TRACK 36 AUDIO
    TITLE "7:cjc174_2773"
    INDEX 01 00:46:03
  TRACK 37 AUDIO
    TITLE "0:"
    INDEX 01 00:47:27
  TRACK 38 AUDIO
    TITLE "8:cjc174_2774"
    INDEX 01 00:47:75
  TRACK 39 AUDIO
    TITLE "0:"
    INDEX 01 00:50:36
  TRACK 40 AUDIO
    TITLE "7:cjc174_2775"
    INDEX 01 00:51:06
  TRACK 41 AUDIO
    TITLE "0:"
    INDEX 01 00:52:25
  TRACK 42 AUDIO
    TITLE "8:cjc174_2776"
    INDEX 01 00:52:70
  TRACK 43 AUDIO
    TITLE "0:"
    INDEX 01 00:56:58
  TRACK 44 AUDIO
    TITLE "7:cjc174_2777"
    INDEX 01 00:57:26
  TRACK 45 AUDIO
    TITLE "0:"
    INDEX 01 00:58:23
  TRACK 46 AUDIO
    TITLE "8:cjc174_2778"
    INDEX 01 00:59:01
  TRACK 47 AUDIO
    TITLE "0:"
    INDEX 01 01:01:28
  TRACK 48 AUDIO
    TITLE "7:cjc174_2779"
    INDEX 01 01:01:71
  TRACK 49 AUDIO
    TITLE "0:"
    INDEX 01 01:02:74
  TRACK 50 AUDIO
    TITLE "8:cjc174_2780"
    INDEX 01 01:03:46
  TRACK 51 AUDIO
    TITLE "0:"
    INDEX 01 01:05:10
  TRACK 52 AUDIO
    TITLE "7:cjc174_2781"
    INDEX 01 01:05:55
  TRACK 53 AUDIO
    TITLE "0:"
    INDEX 01 01:06:72
  TRACK 54 AUDIO
    TITLE "8:cjc174_2782"
    INDEX 01 01:07:46
  TRACK 55 AUDIO
    TITLE "0:"
    INDEX 01 01:10:03
  TRACK 56 AUDIO
    TITLE "7:cjc174_2783"
    INDEX 01 01:10:48
  TRACK 57 AUDIO
    TITLE "0:"
    INDEX 01 01:12:08
  TRACK 58 AUDIO
    TITLE "8:cjc174_2784"
    INDEX 01 01:12:55
  TRACK 59 AUDIO
    TITLE "0:"
    INDEX 01 01:14:20
  TRACK 60 AUDIO
    TITLE "7:cjc174_2785"
    INDEX 01 01:14:64
  TRACK 61 AUDIO
    TITLE "0:"
    INDEX 01 01:15:67
  TRACK 62 AUDIO
    TITLE "8:cjc174_2786"
    INDEX 01 01:16:41
  TRACK 63 AUDIO
    TITLE "0:"
    INDEX 01 01:18:65
  TRACK 64 AUDIO
    TITLE "7:cjc174_2787"
    INDEX 01 01:19:35
  TRACK 65 AUDIO
    TITLE "0:"
    INDEX 01 01:20:68
  TRACK 66 AUDIO
    TITLE "8:cjc174_2788"
    INDEX 01 01:21:40
  TRACK 67 AUDIO
    TITLE "0:"
    INDEX 01 01:24:50
  TRACK 68 AUDIO
    TITLE "7:cjc174_2789"
    INDEX 01 01:25:20
  TRACK 69 AUDIO
    TITLE "0:"
    INDEX 01 01:26:35
  TRACK 70 AUDIO
    TITLE "8:cjc174_2790"
    INDEX 01 01:27:07
  TRACK 71 AUDIO
    TITLE "0:"
    INDEX 01 01:28:28
  TRACK 72 AUDIO
    TITLE "7:cjc174_2791"
    INDEX 01 01:28:73
  TRACK 73 AUDIO
    TITLE "0:"
    INDEX 01 01:30:06
  TRACK 74 AUDIO
    TITLE "8:cjc174_2792"
    INDEX 01 01:30:51
  TRACK 75 AUDIO
    TITLE "0:"
    INDEX 01 01:33:71
